<svg width="200" height="56" viewBox="0 0 200 56" fill="none" xmlns="http://www.w3.org/2000/svg">
<path d="M70.3945 26.822V28.1023C70.3945 30.1557 70.1162 31.9988 69.5596 33.6316C69.0029 35.2644 68.2174 36.656 67.2031 37.8064C66.1888 38.9444 64.9766 39.8165 63.5664 40.4226C62.1686 41.0287 60.6162 41.3318 58.9092 41.3318C57.2145 41.3318 55.6621 41.0287 54.252 40.4226C52.8542 39.8165 51.6419 38.9444 50.6152 37.8064C49.5885 36.656 48.7907 35.2644 48.2217 33.6316C47.665 31.9988 47.3867 30.1557 47.3867 28.1023V26.822C47.3867 24.7563 47.665 22.9132 48.2217 21.2927C48.7783 19.6599 49.5638 18.2683 50.5781 17.1179C51.6048 15.9675 52.8171 15.0893 54.2148 14.4832C55.625 13.877 57.1774 13.574 58.8721 13.574C60.5791 13.574 62.1315 13.877 63.5293 14.4832C64.9395 15.0893 66.1517 15.9675 67.166 17.1179C68.1927 18.2683 68.9844 19.6599 69.541 21.2927C70.11 22.9132 70.3945 24.7563 70.3945 26.822ZM64.7725 28.1023V26.7849C64.7725 25.35 64.6426 24.0883 64.3828 22.9998C64.123 21.9112 63.7396 20.9958 63.2324 20.2537C62.7253 19.5115 62.1068 18.9548 61.377 18.5837C60.6471 18.2003 59.8122 18.0085 58.8721 18.0085C57.932 18.0085 57.097 18.2003 56.3672 18.5837C55.6497 18.9548 55.0374 19.5115 54.5303 20.2537C54.0355 20.9958 53.6582 21.9112 53.3984 22.9998C53.1387 24.0883 53.0088 25.35 53.0088 26.7849V28.1023C53.0088 29.5248 53.1387 30.7865 53.3984 31.8875C53.6582 32.976 54.0417 33.8975 54.5488 34.6521C55.056 35.3943 55.6745 35.9571 56.4043 36.3406C57.1341 36.724 57.9691 36.9158 58.9092 36.9158C59.8493 36.9158 60.6842 36.724 61.4141 36.3406C62.1439 35.9571 62.7562 35.3943 63.251 34.6521C63.7458 33.8975 64.123 32.976 64.3828 31.8875C64.6426 30.7865 64.7725 29.5248 64.7725 28.1023ZM79.4121 25.2634V40.9607H74.0684V20.8845H79.0967L79.4121 25.2634ZM85.4609 20.7546L85.3682 25.7087C85.1084 25.6716 84.793 25.6407 84.4219 25.616C84.0632 25.5789 83.7354 25.5603 83.4385 25.5603C82.6839 25.5603 82.0283 25.6593 81.4717 25.8572C80.9274 26.0427 80.4697 26.321 80.0986 26.6921C79.7399 27.0632 79.4678 27.5147 79.2822 28.0466C79.109 28.5785 79.0101 29.1847 78.9854 29.865L77.9092 29.531C77.9092 28.2322 78.0391 27.0385 78.2988 25.95C78.5586 24.849 78.9359 23.8904 79.4307 23.074C79.9378 22.2576 80.5563 21.6267 81.2861 21.1814C82.016 20.7361 82.8509 20.5134 83.791 20.5134C84.0879 20.5134 84.391 20.5382 84.7002 20.5876C85.0094 20.6248 85.263 20.6804 85.4609 20.7546ZM100.323 20.8845H105.166V40.2927C105.166 42.1235 104.758 43.6759 103.941 44.95C103.137 46.2364 102.012 47.2074 100.564 47.863C99.1172 48.531 97.4349 48.865 95.5176 48.865C94.6764 48.865 93.7858 48.7537 92.8457 48.531C91.918 48.3083 91.0273 47.962 90.1738 47.4919C89.3327 47.0219 88.6276 46.4281 88.0586 45.7107L90.415 42.5564C91.0335 43.2738 91.751 43.8305 92.5674 44.2263C93.3838 44.6345 94.2868 44.8386 95.2764 44.8386C96.2412 44.8386 97.0576 44.6593 97.7256 44.3005C98.3936 43.9542 98.9069 43.4408 99.2656 42.7605C99.6243 42.0925 99.8037 41.2823 99.8037 40.3298V25.5232L100.323 20.8845ZM86.8154 31.1638V30.7742C86.8154 29.2403 87.001 27.8487 87.3721 26.5994C87.7555 25.3376 88.2936 24.2553 88.9863 23.3523C89.6914 22.4493 90.5449 21.7504 91.5469 21.2556C92.5488 20.7608 93.6807 20.5134 94.9424 20.5134C96.2783 20.5134 97.3978 20.7608 98.3008 21.2556C99.2038 21.7504 99.946 22.4555 100.527 23.3708C101.109 24.2738 101.56 25.3438 101.882 26.5808C102.216 27.8054 102.476 29.1475 102.661 30.6072V31.4607C102.476 32.8585 102.197 34.1573 101.826 35.3572C101.455 36.557 100.966 37.6085 100.36 38.5115C99.7542 39.4021 98.9997 40.0948 98.0967 40.5896C97.2061 41.0844 96.1423 41.3318 94.9053 41.3318C93.6683 41.3318 92.5488 41.0782 91.5469 40.571C90.5573 40.0639 89.71 39.3526 89.0049 38.4373C88.2998 37.5219 87.7555 36.4457 87.3721 35.2087C87.001 33.9718 86.8154 32.6235 86.8154 31.1638ZM92.1592 30.7742V31.1638C92.1592 31.9926 92.2396 32.7657 92.4004 33.4832C92.5612 34.2006 92.8086 34.8376 93.1426 35.3943C93.4889 35.9386 93.9157 36.3653 94.4229 36.6746C94.9424 36.9714 95.5547 37.1199 96.2598 37.1199C97.237 37.1199 98.0348 36.9158 98.6533 36.5076C99.2718 36.087 99.7357 35.5118 100.045 34.782C100.354 34.0522 100.534 33.211 100.583 32.2585V29.8279C100.558 29.0486 100.453 28.3497 100.268 27.7312C100.082 27.1003 99.8223 26.5623 99.4883 26.1169C99.1543 25.6716 98.7214 25.3253 98.1895 25.0779C97.6576 24.8305 97.0267 24.7068 96.2969 24.7068C95.5918 24.7068 94.9795 24.8676 94.46 25.1892C93.9528 25.4985 93.526 25.9252 93.1797 26.4695C92.8457 27.0138 92.5921 27.657 92.4189 28.3992C92.2458 29.129 92.1592 29.9207 92.1592 30.7742ZM120.158 36.4333V27.49C120.158 26.8468 120.053 26.2963 119.843 25.8386C119.632 25.3686 119.305 25.0037 118.859 24.7439C118.426 24.4841 117.864 24.3542 117.171 24.3542C116.577 24.3542 116.064 24.4594 115.631 24.6697C115.198 24.8676 114.864 25.1583 114.629 25.5417C114.394 25.9128 114.276 26.352 114.276 26.8591H108.933C108.933 26.0056 109.131 25.1954 109.526 24.4285C109.922 23.6615 110.497 22.9874 111.252 22.406C112.007 21.8123 112.903 21.3484 113.942 21.0144C114.994 20.6804 116.169 20.5134 117.468 20.5134C119.026 20.5134 120.412 20.7732 121.624 21.2927C122.836 21.8123 123.789 22.5916 124.481 23.6306C125.187 24.6697 125.539 25.9685 125.539 27.5271V36.1179C125.539 37.2188 125.607 38.1218 125.743 38.8269C125.879 39.5196 126.077 40.1257 126.337 40.6453V40.9607H120.938C120.678 40.4164 120.48 39.7361 120.344 38.9197C120.22 38.0909 120.158 37.2621 120.158 36.4333ZM120.863 28.7332L120.9 31.7576H117.913C117.208 31.7576 116.596 31.838 116.076 31.9988C115.557 32.1596 115.13 32.3884 114.796 32.6853C114.462 32.9698 114.215 33.3038 114.054 33.6873C113.905 34.0707 113.831 34.4913 113.831 34.949C113.831 35.4067 113.936 35.821 114.146 36.1921C114.357 36.5509 114.66 36.8354 115.056 37.0457C115.451 37.2436 115.915 37.3425 116.447 37.3425C117.251 37.3425 117.95 37.1817 118.544 36.8601C119.138 36.5385 119.595 36.1427 119.917 35.6726C120.251 35.2026 120.424 34.7572 120.437 34.3367L121.847 36.6003C121.649 37.1075 121.377 37.6332 121.03 38.1775C120.696 38.7218 120.27 39.2351 119.75 39.7175C119.23 40.1876 118.606 40.5772 117.876 40.8865C117.146 41.1833 116.28 41.3318 115.278 41.3318C114.004 41.3318 112.848 41.0782 111.809 40.571C110.782 40.0515 109.965 39.3403 109.359 38.4373C108.766 37.5219 108.469 36.4828 108.469 35.3201C108.469 34.2686 108.667 33.3347 109.062 32.5183C109.458 31.7019 110.04 31.0154 110.807 30.4587C111.586 29.8897 112.557 29.463 113.72 29.1785C114.882 28.8816 116.231 28.7332 117.765 28.7332H120.863ZM134.891 25.1707V40.9607H129.547V20.8845H134.557L134.891 25.1707ZM134.111 30.2175H132.664C132.664 28.7332 132.856 27.3972 133.239 26.2097C133.623 25.0098 134.161 23.9893 134.854 23.1482C135.546 22.2947 136.369 21.6453 137.321 21.2C138.286 20.7423 139.362 20.5134 140.55 20.5134C141.49 20.5134 142.35 20.6495 143.129 20.9216C143.908 21.1938 144.576 21.6267 145.133 22.2205C145.702 22.8142 146.135 23.5997 146.432 24.5769C146.741 25.5541 146.896 26.7478 146.896 28.158V40.9607H141.515V28.1394C141.515 27.2488 141.391 26.5561 141.144 26.0613C140.896 25.5665 140.531 25.2201 140.049 25.0222C139.579 24.8119 138.997 24.7068 138.305 24.7068C137.587 24.7068 136.963 24.849 136.431 25.1335C135.911 25.4181 135.478 25.8139 135.132 26.321C134.798 26.8158 134.544 27.3972 134.371 28.0652C134.198 28.7332 134.111 29.4506 134.111 30.2175ZM156.6 20.8845V40.9607H151.237V20.8845H156.6ZM150.903 15.6521C150.903 14.8728 151.175 14.2296 151.72 13.7224C152.264 13.2153 152.994 12.9617 153.909 12.9617C154.812 12.9617 155.536 13.2153 156.08 13.7224C156.637 14.2296 156.915 14.8728 156.915 15.6521C156.915 16.4314 156.637 17.0746 156.08 17.5818C155.536 18.0889 154.812 18.3425 153.909 18.3425C152.994 18.3425 152.264 18.0889 151.72 17.5818C151.175 17.0746 150.903 16.4314 150.903 15.6521ZM169.31 37.157C169.965 37.157 170.547 37.0333 171.054 36.7859C171.561 36.5261 171.957 36.1674 172.241 35.7097C172.538 35.2397 172.693 34.6892 172.705 34.0583H177.733C177.721 35.4685 177.344 36.724 176.602 37.825C175.859 38.9135 174.864 39.7732 173.614 40.4041C172.365 41.0225 170.967 41.3318 169.421 41.3318C167.862 41.3318 166.502 41.072 165.339 40.5525C164.188 40.033 163.23 39.3155 162.463 38.4001C161.696 37.4724 161.121 36.3962 160.737 35.1716C160.354 33.9347 160.162 32.6111 160.162 31.2009V30.6628C160.162 29.2403 160.354 27.9167 160.737 26.6921C161.121 25.4552 161.696 24.379 162.463 23.4636C163.23 22.5359 164.188 21.8123 165.339 21.2927C166.489 20.7732 167.838 20.5134 169.384 20.5134C171.029 20.5134 172.47 20.8289 173.707 21.4597C174.956 22.0906 175.934 22.9936 176.639 24.1687C177.356 25.3315 177.721 26.7107 177.733 28.3064H172.705C172.693 27.6384 172.55 27.0323 172.278 26.488C172.019 25.9438 171.635 25.5108 171.128 25.1892C170.633 24.8552 170.021 24.6882 169.291 24.6882C168.512 24.6882 167.875 24.8552 167.38 25.1892C166.885 25.5108 166.502 25.9561 166.229 26.5251C165.957 27.0818 165.766 27.7188 165.654 28.4363C165.555 29.1414 165.506 29.8835 165.506 30.6628V31.2009C165.506 31.9802 165.555 32.7286 165.654 33.446C165.753 34.1635 165.939 34.8005 166.211 35.3572C166.495 35.9138 166.885 36.3529 167.38 36.6746C167.875 36.9962 168.518 37.157 169.31 37.157ZM186.176 12.4421V40.9607H180.832V12.4421H186.176ZM198.83 20.8845L190.109 30.8298L185.434 35.5613L183.485 31.7019L187.196 26.989L192.41 20.8845H198.83ZM193.282 40.9607L187.345 31.6833L191.037 28.4548L199.442 40.9607H193.282Z" fill="#274C5B"/>
<path d="M1.85071 42.1245H19.291H36.7313" stroke="#7EB693" stroke-width="2" stroke-miterlimit="10"/>
<path d="M5.79102 48.5874L19.291 48.5874L32.791 48.5874" stroke="#7EB693" stroke-width="2" stroke-miterlimit="10"/>
<path d="M18.791 1.35962L18.791 8.39352L18.791 15.4274" stroke="#7EB693" stroke-width="2" stroke-miterlimit="10"/>
<path d="M18.8656 14.7083V41.2678" stroke="#7EB693" stroke-width="2" stroke-miterlimit="10"/>
<path d="M29.9253 4.42725L18.8656 15.5651" stroke="#7EB693" stroke-width="2" stroke-miterlimit="10"/>
<path d="M34.179 8.71094L18.8656 24.1326" stroke="#7EB693" stroke-width="2" stroke-miterlimit="10"/>
<path d="M36.7313 15.5649L18.8656 32.7002" stroke="#7EB693" stroke-width="2" stroke-miterlimit="10"/>
<path d="M37.582 23.2759L18.8656 42.1246" stroke="#7EB693" stroke-width="2" stroke-miterlimit="10"/>
<path d="M37.582 31.8435L27.373 42.1246" stroke="#7EB693" stroke-width="2" stroke-miterlimit="10"/>
<path d="M1 31.8435L11.209 42.1246" stroke="#7EB693" stroke-width="2" stroke-miterlimit="10"/>
<path d="M8.65674 4.42725L18.8657 15.5651" stroke="#7EB693" stroke-width="2" stroke-miterlimit="10"/>
<path d="M4.40295 8.71094L18.8656 24.1326" stroke="#7EB693" stroke-width="2" stroke-miterlimit="10"/>
<path d="M1.85071 14.7083L18.8656 32.7002" stroke="#7EB693" stroke-width="2" stroke-miterlimit="10"/>
<path d="M1 22.4192L18.8657 41.2679" stroke="#7EB693" stroke-width="2" stroke-miterlimit="10"/>
<path d="M19.291 54.976C9.19019 54.976 1 46.4827 1 36.0039V19.9721C1 9.49514 9.19019 1 19.291 1C29.3937 1 37.5821 9.49514 37.5821 19.9721V36.0039C37.5839 46.4827 29.3937 54.976 19.291 54.976Z" stroke="#7EB693" stroke-width="2" stroke-miterlimit="10"/>
</svg>
